#!OML:ASF F:\VICON\USERDATA\INSTALL\rory3\rory3.ASF
:FULLY-SPECIFIED
:DEGREES
2494
root 0.53146 15.4554 -2.15157 14.5701 1.72424 -2.78026
lowerback 36.2989 3.20797 -5.24938
upperback 8.40926 1.92221 -1.41723
thorax -8.77159 0.951452 0.501862
lowerneck -12.2024 -7.36476 -11.7697
upperneck -12.0732 -7.64622 18.8826
head -0.200782 -3.58011 7.46586
rclavicle -1.59028e-015 4.45278e-014
rhumerus 34.2632 27.9678 -60.8283
rradius 30.7672
rwrist 12.5437
rhand 20.7325 10.3941
rfingers 7.12502
rthumb 45.2169 -13.0195
lclavicle -1.59028e-015 4.45278e-014
lhumerus 43.4319 -37.5328 44.4857
lradius 34.2012
lwrist 8.49438
lhand 14.2635 24.8249
lfingers 7.12502
lthumb 39.158 50.2995
rfemur -40.5645 6.92762 14.8902
rtibia 43.0652
rfoot -12.5219 -11.1532
rtoes -13.6576
lfemur -42.1515 -1.66141 -12.8967
ltibia 43.2731
lfoot -10.1171 -1.41364
ltoes -10.5728
2495
root 0.532352 15.4573 -2.14954 14.6227 1.70819 -2.87535
lowerback 36.2953 3.17714 -5.10608
upperback 8.43122 1.93604 -1.4152
thorax -8.74525 0.955625 0.424924
lowerneck -12.6342 -6.97573 -11.7879
upperneck -11.8745 -7.08009 18.9357
head -0.155865 -3.26575 7.51509
rclavicle -1.27222e-014 -2.14687e-014
rhumerus 34.395 27.8596 -60.9517
rradius 30.8426
rwrist 12.6115
rhand 21.1747 10.557
rfingers 7.12502
rthumb 45.6278 -12.6909
lclavicle -1.27222e-014 -2.14687e-014
lhumerus 43.358 -37.3758 44.503
lradius 34.1926
lwrist 8.55363
lhand 13.9165 24.4488
lfingers 7.12502
lthumb 38.8308 50.0171
rfemur -40.5684 6.9028 15.0045
rtibia 42.9685
rfoot -12.4364 -11.1085
rtoes -13.8366
lfemur -42.2041 -1.74381 -12.7609
ltibia 43.2808
lfoot -10.2125 -1.22563
ltoes -11.2051
2496
root 0.53353 15.4593 -2.14846 14.6423 1.69779 -2.99372
lowerback 36.359 3.15816 -4.91694
upperback 8.43339 1.97498 -1.4155
thorax -8.765 0.971709 0.309619
lowerneck -13.1363 -6.63374 -11.8884
upperneck -11.545 -6.57466 19.0711
head -0.0455572 -2.97207 7.59687
rclavicle -3.18055e-015 2.66371e-014
rhumerus 34.5335 27.7372 -61.0197
rradius 30.8377
rwrist 12.6637
rhand 21.121 10.6525
rfingers 7.12502
rthumb 45.5779 -12.6157
lclavicle -3.18055e-015 2.66371e-014
lhumerus 43.4765 -37.3956 44.2866
lradius 34.1748
lwrist 8.75018
lhand 13.3744 24.0872
lfingers 7.12502
lthumb 38.3194 49.7988
rfemur -40.5429 6.86746 15.1469
rtibia 42.857
rfoot -12.387 -11.026
rtoes -13.9163
lfemur -42.238 -1.81293 -12.5973
ltibia 43.301
lfoot -10.2792 -1.10337
ltoes -11.3326
2497
root 0.533665 15.4619 -2.14653 14.6729 1.69013 -3.12748
lowerback 36.3948 3.16205 -4.74196
upperback 8.42983 2.03956 -1.41007
thorax -8.78207 0.999661 0.198409
lowerneck -13.3941 -6.26779 -11.8891
upperneck -11.3983 -6.053 19.1201
head -0.0388268 -2.69002 7.64535
rclavicle 6.36111e-015 -4.77083e-015
rhumerus 34.6102 27.5564 -61.1862
rradius 30.8076
rwrist 12.8706
rhand 20.762 10.692
rfingers 7.12502
rthumb 45.2443 -12.7107
lclavicle 6.36111e-015 -4.77083e-015
lhumerus 43.5969 -37.4197 44.109
lradius 34.1716
lwrist 8.84749
lhand 13.2908 24.0611
lfingers 7.12502
lthumb 38.2405 49.7945
rfemur -40.5275 6.83544 15.3052
rtibia 42.755
rfoot -12.3928 -10.9295
rtoes -13.5645
lfemur -42.2764 -1.87002 -12.4194
ltibia 43.3311
lfoot -10.2904 -1.02382
ltoes -11.4729
2498
root 0.53262 15.4644 -2.14479 14.701 1.67258 -3.22063
lowerback 36.4392 3.15525 -4.68109
upperback 8.4138 2.0485 -1.41208
thorax -8.81511 1.00337 0.159603
lowerneck -13.5901 -5.87781 -11.6686
upperneck -11.2813 -5.53586 19.0248
head -0.0656236 -2.42249 7.60902
rclavicle -4.13472e-014 3.65764e-014
rhumerus 34.7621 27.5745 -61.2774
rradius 30.8825
rwrist 12.9022
rhand 20.8706 10.6281
rfingers 7.12502
rthumb 45.3452 -12.7342
lclavicle -4.13472e-014 3.65764e-014
lhumerus 43.4438 -37.2402 44.2328
lradius 34.1246
lwrist 8.648
lhand 13.5306 24.0888
lfingers 7.12502
lthumb 38.4668 49.7595
rfemur -40.5109 6.77987 15.4349
rtibia 42.6645
rfoot -12.3795 -10.8592
rtoes -13.6489
lfemur -42.2927 -2.03228 -12.2383
ltibia 43.3446
lfoot -10.3068 -0.865506
ltoes -11.3693
2499
root 0.531808 15.4676 -2.14252 14.7143 1.60858 -3.30032
lowerback 36.4749 3.17429 -4.67276
upperback 8.40875 2.07085 -1.41518
thorax -8.83379 1.01328 0.142208
lowerneck -14.0795 -5.63212 -11.6828
upperneck -10.8297 -5.19333 19.2395
head 0.102297 -2.21193 7.69092
rclavicle -6.36111e-015 2.34566e-014
rhumerus 34.8959 27.6765 -61.2407
rradius 31.0878
rwrist 12.7585
rhand 21.1591 10.4987
rfingers 7.12502
rthumb 45.6133 -12.7551
lclavicle -6.36111e-015 2.34566e-014
lhumerus 43.3177 -37.0608 44.3387
lradius 34.0514
lwrist 8.4208
lhand 13.6518 23.9195
lfingers 7.12502
lthumb 38.5811 49.5582
rfemur -40.4915 6.71092 15.562
rtibia 42.5877
rfoot -12.34 -10.7229
rtoes -13.8393
lfemur -42.2783 -2.15815 -12.0889
ltibia 43.3521
lfoot -10.3305 -0.652941
ltoes -11.4267
2500
root 0.531341 15.469 -2.13853 14.7248 1.52045 -3.34814
lowerback 36.4625 3.22108 -4.69932
upperback 8.43183 2.12044 -1.4049
thorax -8.80595 1.03516 0.148574
lowerneck -14.9062 -5.50983 -11.9466
upperneck -10.0321 -4.99589 19.66
head 0.462446 -2.03751 7.86658
rclavicle 1.82882e-014 -4.81059e-014
rhumerus 34.9373 27.6485 -61.2337
rradius 31.3365
rwrist 12.7556
rhand 21.1826 10.5119
rfingers 7.12502
rthumb 45.6351 -12.733
lclavicle 1.82882e-014 -4.81059e-014
lhumerus 43.3022 -36.9569 44.3223
lradius 34.0662
lwrist 8.38023
lhand 13.7369 23.8991
lfingers 7.12502
lthumb 38.6614 49.5153
rfemur -40.473 6.63496 15.6496
rtibia 42.532
rfoot -12.3056 -10.5427
rtoes -13.8186
lfemur -42.2449 -2.18074 -12.0171
ltibia 43.3588
lfoot -10.4073 -0.528065
ltoes -11.2899
2501
root 0.530103 15.4687 -2.13539 14.772 1.45268 -3.35747
lowerback 36.4163 3.25454 -4.74581
upperback 8.43547 2.14513 -1.42455
thorax -8.78617 1.04669 0.143717
lowerneck -15.3823 -5.37295 -12.0031
upperneck -9.56139 -4.80729 19.8848
head 0.657075 -1.90065 7.95405
rclavicle 2.38542e-015 3.73715e-014
rhumerus 34.959 27.5973 -61.2312
rradius 31.6275
rwrist 12.7953
rhand 21.0521 10.7018
rfingers 7.12502
rthumb 45.5139 -12.5924
lclavicle 2.38542e-015 3.73715e-014
lhumerus 43.3457 -36.9302 44.1806
lradius 34.1327
lwrist 8.51931
lhand 13.8067 24.028
lfingers 7.12502
lthumb 38.7272 49.6256
rfemur -40.5084 6.5428 15.6925
rtibia 42.4857
rfoot -12.2853 -10.3917
rtoes -13.655
lfemur -42.2769 -2.18377 -11.9872
ltibia 43.3885
lfoot -10.483 -0.478363
ltoes -11.1711
2502
root 0.527676 15.4699 -2.13292 14.8025 1.35676 -3.36585
lowerback 36.3991 3.30829 -4.82649
upperback 8.42686 2.1786 -1.45521
thorax -8.79053 1.06291 0.140355
lowerneck -15.4759 -5.21222 -11.9024
upperneck -9.43836 -4.60542 19.9241
head 0.674984 -1.79272 7.96302
rclavicle -1.19271e-014 -1.59028e-015
rhumerus 34.9831 27.583 -61.1287
rradius 32.0304
rwrist 12.6507
rhand 20.9969 10.9189
rfingers 7.12502
rthumb 45.4626 -12.3961
lclavicle -1.19271e-014 -1.59028e-015
lhumerus 43.4806 -37.0225 43.8219
lradius 34.2542
lwrist 8.82194
lhand 13.6818 24.2232
lfingers 7.12502
lthumb 38.6095 49.854
rfemur -40.5315 6.50338 15.7267
rtibia 42.4477
rfoot -12.2613 -10.2652
rtoes -13.6678
lfemur -42.2966 -2.18931 -11.9511
ltibia 43.4383
lfoot -10.5014 -0.421562
ltoes -11.3883
2503
root 0.524164 15.4697 -2.13008 14.8008 1.33508 -3.51269
lowerback 36.4173 3.33643 -4.78232
upperback 8.43883 2.22912 -1.43816
thorax -8.78529 1.08481 0.115706
lowerneck -15.6719 -5.10787 -11.8022
upperneck -9.26707 -4.47966 19.9644
head 0.73473 -1.7164 7.96489
rclavicle -8.74653e-015 2.3059e-014
rhumerus 34.846 27.5121 -61.0566
rradius 32.6061
rwrist 12.47
rhand 20.8947 10.9897
rfingers 7.12502
rthumb 45.3676 -12.3636
lclavicle -8.74653e-015 2.3059e-014
lhumerus 43.6704 -37.0957 43.4483
lradius 34.3614
lwrist 9.04701
lhand 13.6295 24.4689
lfingers 7.12502
lthumb 38.56 50.1135
rfemur -40.4979 6.4999 15.924
rtibia 42.4092
rfoot -12.2508 -10.2517
rtoes -13.8399
lfemur -42.3193 -2.18475 -11.7549
ltibia 43.5092
lfoot -10.5077 -0.396574
ltoes -11.5048
